<svg width="24" height="24" viewBox="0 0 24 24" fill="none" xmlns="http://www.w3.org/2000/svg">
<mask id="path-1-inside-1_10_114" fill="white">
<path d="M22 22V19.3333C22 17.9188 21.4732 16.5623 20.5355 15.5621C19.5979 14.5619 18.3261 14 17 14H7C5.67392 14 4.40215 14.5619 3.46447 15.5621C2.52678 16.5623 2 17.9188 2 19.3333V22"/>
</mask>
<path d="M20 22C20 23.1046 20.8954 24 22 24C23.1046 24 24 23.1046 24 22H20ZM17 14V12V14ZM7 14V12V14ZM2 19.3333H0H2ZM0 22C0 23.1046 0.89543 24 2 24C3.10457 24 4 23.1046 4 22H0ZM24 22V19.3333H20V22H24ZM24 19.3333C24 17.4286 23.2918 15.5779 21.9946 14.1942L19.0765 16.93C19.6546 17.5467 20 18.4091 20 19.3333H24ZM21.9946 14.1942C20.6933 12.8061 18.8997 12 17 12V16C17.7525 16 18.5024 16.3177 19.0765 16.93L21.9946 14.1942ZM17 12H7V16H17V12ZM7 12C5.10031 12 3.30671 12.8061 2.00539 14.1942L4.92354 16.93C5.49759 16.3177 6.24753 16 7 16L7 12ZM2.00539 14.1942C0.708171 15.5779 0 17.4286 0 19.3333H4C4 18.4091 4.3454 17.5467 4.92354 16.93L2.00539 14.1942ZM0 19.3333V22H4V19.3333H0Z" fill="white" mask="url(#path-1-inside-1_10_114)"/>
<path d="M17 8C17 10.7614 14.7614 13 12 13C9.23858 13 7 10.7614 7 8C7 5.23858 9.23858 3 12 3C14.7614 3 17 5.23858 17 8Z" stroke="white" stroke-width="2" stroke-linecap="round" stroke-linejoin="round"/>
<path d="M4 21H20" stroke="white" stroke-width="2"/>
</svg>
