<svg width="144" height="38" viewBox="0 0 144 38" fill="none" xmlns="http://www.w3.org/2000/svg">
<g clip-path="url(#clip0_356_2)">
<path d="M29.6995 0.499039V13.6751C26.9128 11.8391 23.9688 10.8204 20.6047 10.8204C17.2381 10.8204 14.2941 11.8391 11.5047 13.6751V0.499039H0.504639V37.3019H11.5047V26.0339C13.4874 23.0698 16.7967 21.2312 20.6047 21.2312C24.4101 21.2312 27.7181 23.0698 29.6995 26.0339V37.3019H40.7009V0.499039H29.6995Z" fill="url(#paint0_linear_356_2)"/>
<path d="M110.158 33.5735V22.3294H106.951V36.4069H117.434V33.5735H110.158Z" fill="#CBD4DF"/>
<path d="M81.6 25.2473H89.9747V22.3299H78.3947V36.406H89.9747V33.49H81.6V30.69H88.8734V28.0446H81.6V28.0246V25.2473Z" fill="#CBD4DF"/>
<path d="M95.8753 25.2473H104.254V22.3299H92.6712V36.406H104.254V33.49H95.8753V30.69H103.15V28.0446H95.8753V28.0246V25.2473Z" fill="#CBD4DF"/>
<mask id="mask0_356_2" style="mask-type:luminance" maskUnits="userSpaceOnUse" x="-623" y="-973" width="814" height="1059">
<path d="M-622.001 85.5383H190.603V-972.736H-622.001V85.5383Z" fill="white"/>
</mask>
<g mask="url(#mask0_356_2)">
<path d="M58.1636 27.8966H52.1116C51.5889 27.8966 51.3302 27.6313 51.3302 27.0993V25.8726C51.3302 25.4553 51.5889 25.2459 52.1116 25.2459H60.5836V22.3286H51.3476C49.2902 22.3286 48.2609 23.3246 48.2609 25.3153V27.9313C48.2609 29.854 49.2435 30.814 51.2102 30.814H57.2303C57.7516 30.814 58.0129 31.082 58.0129 31.6126V32.858C58.0129 33.278 57.7516 33.4886 57.2303 33.4886H48.3849V36.4047H58.0129C60.0796 36.4047 61.1156 35.4033 61.1156 33.402V30.7806C61.1156 28.8579 60.1329 27.8966 58.1636 27.8966Z" fill="#CBD4DF"/>
</g>
<path d="M63.1219 22.3294V25.2468H67.8859V36.4069H71.0926V25.2468H75.8566V22.3294H63.1219Z" fill="#CBD4DF"/>
<path d="M57.9099 7.88787H51.3392V2.38784H48.2539V16.4639H51.3392V10.6359H57.9099V16.4639H60.9939V2.38784H57.9099V7.88787Z" fill="#CBD4DF"/>
<mask id="mask1_356_2" style="mask-type:luminance" maskUnits="userSpaceOnUse" x="-623" y="-973" width="814" height="1059">
<path d="M-622.001 85.5383H190.603V-972.736H-622.001V85.5383Z" fill="white"/>
</mask>
<g mask="url(#mask1_356_2)">
<path d="M124.948 3.19105C124.3 3.85506 124.273 4.81906 124.257 5.38307V16.4631H127.335V11.9738H133.885V16.4631H136.976V2.38705H127.363C126.448 2.39505 125.592 2.52438 124.948 3.19105ZM128.125 5.13773H133.885V9.22709H127.335V5.94174C127.352 5.77907 127.315 5.4884 127.459 5.3164C127.603 5.13106 127.832 5.1444 128.125 5.13773Z" fill="#CBD4DF"/>
<path d="M103.112 2.38839H93.4759V16.4645H96.5612V5.13907H102.347C102.636 5.14574 102.871 5.13241 103.02 5.31641C103.16 5.48974 103.125 5.77908 103.137 5.94175V16.4645H106.221V5.38308C106.203 4.82041 106.177 3.85507 105.529 3.19239C104.889 2.52572 104.033 2.39506 103.112 2.38839Z" fill="#CBD4DF"/>
<path d="M87.6625 12.9071C87.6492 13.0724 87.6785 13.3631 87.5385 13.5378C87.3959 13.7245 87.1599 13.7058 86.8719 13.7098H81.0852V2.38838H77.9998V16.4631H87.6345C88.5586 16.4591 89.4092 16.3258 90.0479 15.6631C90.7052 14.9991 90.7266 14.0338 90.7466 13.4698V2.38838H87.6625V12.9071Z" fill="#CBD4DF"/>
<path d="M121.695 5.38308C121.68 4.82041 121.656 3.85507 121.011 3.19106C120.364 2.52572 119.508 2.39506 118.6 2.38839H108.957V16.4645H118.6C119.508 16.4591 120.364 16.3271 121.011 15.6631C121.656 14.9991 121.68 14.0338 121.695 13.4698V5.38308ZM118.624 12.9071C118.608 13.0725 118.637 13.3631 118.504 13.5378C118.36 13.7245 118.125 13.7058 117.839 13.7098H112.044V5.13774H117.839C118.125 5.14574 118.36 5.13241 118.504 5.31641C118.637 5.48974 118.608 5.77908 118.624 5.94175V12.9071Z" fill="#CBD4DF"/>
</g>
<path d="M69.498 8.54552L65.7539 2.38948H62.0859L67.8539 11.2642V16.4642H71.1486V11.2642L76.9033 2.38948H73.238L69.498 8.54552Z" fill="#CBD4DF"/>
<path d="M140.069 16.4674H143.354V2.38867H140.069V16.4674Z" fill="#CBD4DF"/>
</g>
<defs>
<linearGradient id="paint0_linear_356_2" x1="-0.88337" y1="39.3526" x2="-0.88337" y2="0.248903" gradientUnits="userSpaceOnUse">
<stop stop-color="#CBD4DF"/>
<stop offset="1" stop-color="#CBD4DF"/>
</linearGradient>
<clipPath id="clip0_356_2">
<rect width="143.853" height="37.8027" fill="white"/>
</clipPath>
</defs>
</svg>
