<svg width="64" height="30" viewBox="0 0 64 30" fill="none" xmlns="http://www.w3.org/2000/svg">
<g clip-path="url(#clip0_193_224)">
<path d="M16.1134 0.239174H19.9777V18.0568H16.1134V0.239174Z" fill="white"/>
<path d="M9.34182 8.60628H3.80317V4.4669L9.34182 4.4479V8.60628ZM-3.05176e-05 0.921571V12.1336H13.168V0.90157L-3.05176e-05 0.921571Z" fill="white"/>
<path d="M6.5536 18.737H10.4406V26.4527H20.0909V29.9271H6.5067L6.5536 18.737Z" fill="white"/>
<path d="M33.6918 26.4527H28.0254L28.0663 22.2683H33.6918V26.4527ZM24.2661 18.737L24.1553 30.0001H37.496V18.737H24.2661Z" fill="white"/>
<path d="M22.902 13.6956V17.1999H38.8394V13.7586L22.902 13.6956Z" fill="white"/>
<mask id="mask0_193_224" style="mask-type:luminance" maskUnits="userSpaceOnUse" x="-368" y="-286" width="800" height="601">
<path d="M-367.307 -285.398H431.056V314.658H-367.307V-285.398Z" fill="white"/>
</mask>
<g mask="url(#mask0_193_224)">
<path d="M28.0911 6.58445C28.0911 4.9933 29.3884 3.70018 30.9811 3.70018C31.7458 3.69938 32.4796 4.00262 33.0214 4.54335C33.5632 5.08409 33.8688 5.81814 33.8712 6.58445C33.8688 7.35047 33.5631 8.08422 33.0212 8.62448C32.4793 9.16473 31.7455 9.46731 30.9811 9.46571C30.2167 9.46731 29.483 9.16473 28.9411 8.62448C28.3992 8.08422 28.0934 7.35047 28.0911 6.58445ZM24.3976 6.58445C24.3976 10.2158 27.3506 13.1671 30.9811 13.1671C34.6097 13.1671 37.5626 10.2158 37.5626 6.58445C37.5626 2.94811 34.6097 -0.000163513 30.9811 -0.000163513C27.3506 -0.000163513 24.3976 2.94811 24.3976 6.58445Z" fill="white"/>
<path d="M46.7638 0.941H50.2646L56.2304 10.6029L53.1457 12.9641L48.4962 4.65734L43.745 12.9641L40.6234 10.7059L46.7638 0.941Z" fill="white"/>
<path d="M57.5477 0.241862H61.3649V4.58626H64.0005V8.41262H61.299V18.0725H57.41L57.5477 0.241862Z" fill="white"/>
</g>
</g>
<defs>
<clipPath id="clip0_193_224">
<rect width="64" height="30" fill="white"/>
</clipPath>
</defs>
</svg>
