<svg width="24" height="24" viewBox="0 0 24 24" fill="none" xmlns="http://www.w3.org/2000/svg">
<g clip-path="url(#clip0_14_4)">
<rect width="24" height="24" fill="white"/>
<path d="M4 0V24" stroke="#8CFF97" stroke-width="0.1"/>
<path d="M8 0V24" stroke="#8CFF97" stroke-width="0.1"/>
<path d="M12 0V24" stroke="#8CFF97" stroke-width="0.1"/>
<path d="M16 0V24" stroke="#8CFF97" stroke-width="0.1"/>
<path d="M20 0V23.8572" stroke="#8CFF97" stroke-width="0.1"/>
<path d="M0 4H24" stroke="#8CFF97" stroke-width="0.1"/>
<path d="M0 8H24" stroke="#8CFF97" stroke-width="0.1"/>
<path d="M0 12H24" stroke="#8CFF97" stroke-width="0.1"/>
<path d="M0 16H24" stroke="#8CFF97" stroke-width="0.1"/>
<path d="M0 20H24" stroke="#8CFF97" stroke-width="0.1"/>
<path d="M22 4V20C22 20.5523 21.5523 21 21 21H3C2.44772 21 2 20.5523 2 20V4C2 3.44772 2.44772 3 3 3H21C21.5523 3 22 3.44772 22 4ZM21 3V21C21 21.5523 20.5523 22 20 22H4C3.44772 22 3 21.5523 3 21V3C3 2.44772 3.44772 2 4 2H20C20.5523 2 21 2.44772 21 3ZM4 21H20C20.5523 21 21 20.5523 21 20V4C21 3.44772 20.5523 3 20 3H4C3.44772 3 3 3.44772 3 4V20C3 20.5523 3.44772 21 4 21Z" stroke="#FF5C5C" stroke-width="0.1"/>
<circle cx="12" cy="12" r="9.95" stroke="#FF5C5C" stroke-width="0.1"/>
<circle cx="12" cy="12" r="4.95" stroke="#FF5C5C" stroke-width="0.1"/>
</g>
<rect x="0.05" y="0.05" width="23.9" height="23.9" stroke="#8CFF97" stroke-width="0.1"/>
<path d="M16.5 10C16.5 13.5899 13.5899 16.5 10 16.5C6.41015 16.5 3.5 13.5899 3.5 10C3.5 6.41015 6.41015 3.5 10 3.5C13.5899 3.5 16.5 6.41015 16.5 10Z" stroke="black"/>
<path d="M20.1464 20.8536C20.3417 21.0488 20.6583 21.0488 20.8536 20.8536C21.0488 20.6583 21.0488 20.3417 20.8536 20.1464L20.1464 20.8536ZM20.8536 20.1464L14.8536 14.1464L14.1464 14.8536L20.1464 20.8536L20.8536 20.1464Z" fill="black"/>
<defs>
<clipPath id="clip0_14_4">
<rect width="24" height="24" fill="white"/>
</clipPath>
</defs>
</svg>
