<svg width="24" height="24" viewBox="0 0 24 24" fill="none" xmlns="http://www.w3.org/2000/svg">
<g clip-path="url(#clip0_10_96)">
<rect width="24" height="24" fill="white"/>
<path d="M4 0V24" stroke="#8CFF97" stroke-width="0.1"/>
<path d="M8 0V24" stroke="#8CFF97" stroke-width="0.1"/>
<path d="M12 0V24" stroke="#8CFF97" stroke-width="0.1"/>
<path d="M16 0V24" stroke="#8CFF97" stroke-width="0.1"/>
<path d="M20 0V23.8572" stroke="#8CFF97" stroke-width="0.1"/>
<path d="M0 4H24" stroke="#8CFF97" stroke-width="0.1"/>
<path d="M0 8H24" stroke="#8CFF97" stroke-width="0.1"/>
<path d="M0 12H24" stroke="#8CFF97" stroke-width="0.1"/>
<path d="M0 16H24" stroke="#8CFF97" stroke-width="0.1"/>
<path d="M0 20H24" stroke="#8CFF97" stroke-width="0.1"/>
<path d="M22 4V20C22 20.5523 21.5523 21 21 21H3C2.44772 21 2 20.5523 2 20V4C2 3.44772 2.44772 3 3 3H21C21.5523 3 22 3.44772 22 4ZM21 3V21C21 21.5523 20.5523 22 20 22H4C3.44772 22 3 21.5523 3 21V3C3 2.44772 3.44772 2 4 2H20C20.5523 2 21 2.44772 21 3ZM4 21H20C20.5523 21 21 20.5523 21 20V4C21 3.44772 20.5523 3 20 3H4C3.44772 3 3 3.44772 3 4V20C3 20.5523 3.44772 21 4 21Z" stroke="#FF5C5C" stroke-width="0.1"/>
<circle cx="12" cy="12" r="9.95" stroke="#FF5C5C" stroke-width="0.1"/>
<circle cx="12" cy="12" r="4.95" stroke="#FF5C5C" stroke-width="0.1"/>
</g>
<rect x="0.05" y="0.05" width="23.9" height="23.9" stroke="#8CFF97" stroke-width="0.1"/>
<mask id="path-16-inside-1_10_96" fill="white">
<path d="M21 21V18.6667C21 17.429 20.5259 16.242 19.682 15.3668C18.8381 14.4917 17.6935 14 16.5 14H7.5C6.30653 14 5.16193 14.4917 4.31802 15.3668C3.47411 16.242 3 17.429 3 18.6667V21"/>
</mask>
<path d="M20 21C20 21.5523 20.4477 22 21 22C21.5523 22 22 21.5523 22 21H20ZM16.5 14V13V14ZM7.5 14L7.5 13L7.5 14ZM3 18.6667H2H3ZM2 21C2 21.5523 2.44772 22 3 22C3.55228 22 4 21.5523 4 21H2ZM22 21V18.6667H20V21H22ZM22 18.6667C22 17.1753 21.429 15.738 20.4018 14.6727L18.9621 16.061C19.6227 16.746 20 17.6827 20 18.6667H22ZM20.4018 14.6727C19.3734 13.6062 17.9707 13 16.5 13L16.5 15C17.4163 15 18.3027 15.3771 18.9621 16.061L20.4018 14.6727ZM16.5 13H7.5V15H16.5V13ZM7.5 13C6.02933 13 4.62659 13.6062 3.59817 14.6727L5.03786 16.061C5.69728 15.3771 6.58372 15 7.5 15L7.5 13ZM3.59817 14.6727C2.57095 15.738 2 17.1753 2 18.6667H4C4 17.6827 4.37726 16.746 5.03786 16.061L3.59817 14.6727ZM2 18.6667V21H4V18.6667H2Z" fill="black" mask="url(#path-16-inside-1_10_96)"/>
<path d="M16.5 8C16.5 10.4853 14.4853 12.5 12 12.5C9.51472 12.5 7.5 10.4853 7.5 8C7.5 5.51472 9.51472 3.5 12 3.5C14.4853 3.5 16.5 5.51472 16.5 8Z" stroke="black" stroke-linecap="round" stroke-linejoin="round"/>
<path d="M3.5 20.5H20.5" stroke="black"/>
<defs>
<clipPath id="clip0_10_96">
<rect width="24" height="24" fill="white"/>
</clipPath>
</defs>
</svg>
